<svg width="640" height="864" viewBox="0 0 640 864" fill="none" xmlns="http://www.w3.org/2000/svg">
<path fill-rule="evenodd" clip-rule="evenodd" d="M519.032 671.825C516.761 658.995 514.679 646.131 512.787 633.239C511.889 627.119 511.013 620.993 510.226 614.856C509.674 610.557 508.834 605.641 511.758 602.457C515.872 597.975 519.61 594.139 520.113 587.719C520.587 581.679 518.546 575.095 517.269 569.231C514.592 556.936 511.259 544.793 507.576 532.764C503.835 520.544 499.732 508.438 495.57 496.355C491.68 485.059 487.939 473.66 482.872 462.821C473.254 442.253 456.984 427.02 436.876 416.849C431.875 414.32 421.674 405.29 416.449 403.268C411.646 401.409 411.663 406.838 406.936 404.793C403.157 403.158 399.638 400.979 397.522 397.329C395.224 393.365 389.463 387.821 388.586 383.208C386.727 373.428 388.74 365.105 381.764 357.745C375.57 351.209 367.245 346.731 358.631 344.327C339.681 339.04 314.409 342.736 302.975 360.352C297.514 368.764 295.606 378.933 288.238 385.798C281.803 391.793 283.243 395.891 274.91 398.98C274.438 399.156 261.645 396.411 261.173 396.586C252.056 394.635 243.343 400.098 234.979 403.268C222.509 407.994 210.638 414.145 199.485 421.455C176.995 436.196 157.733 455.338 141.853 476.999C125.842 498.838 113.419 523.317 104.573 548.901C102.425 555.115 100.495 561.405 98.7933 567.756C97.8407 571.31 96.8226 574.997 97.9826 578.637C98.9314 581.614 101.042 583.83 103.52 585.617C106.88 588.038 113.618 589.612 113.487 594.483C113.387 598.186 112.131 602.083 111.518 605.742C110.788 610.1 110.189 614.484 109.589 618.861C106.863 638.784 104.74 658.82 103.802 678.912C102.878 698.696 102.111 718.884 103.483 738.661C103.574 739.965 103.962 741.162 104.589 742.174C104.004 742.398 103.959 743.49 104.687 743.644C105.198 743.753 105.707 743.861 106.218 743.969C107.278 744.771 108.6 745.264 110.122 745.312C111.153 745.344 112.184 745.391 113.215 745.444C124.089 747.717 134.961 749.865 145.976 751.492C159.367 753.469 172.797 755.081 186.268 756.391C213.95 759.083 241.414 758.19 269.132 756.739C296.807 755.29 324.467 754.952 352.171 755.672C379.899 756.394 407.618 757.601 435.352 758.094C466.338 758.645 497.276 757.799 528.171 755.335C532.408 754.997 535.028 751.626 534.193 747.417C529.187 722.2 523.515 697.151 519.032 671.825Z" fill="white"/>
<path fill-rule="evenodd" clip-rule="evenodd" d="M252.527 395.966C255.393 395.841 258.314 396.305 261.173 396.586C261.422 396.611 261.516 396.995 261.236 397.054C256.12 398.123 251.06 399.585 246.036 401.071L243.884 401.708C238.218 403.384 232.719 405.114 227.234 407.351C216.302 411.808 205.919 417.823 196.364 424.735C159.568 451.349 132.937 491.643 116.132 533.361C111.568 544.69 107.701 556.302 104.568 568.109C103.807 570.981 103.09 573.865 102.411 576.758C102.211 577.606 101.342 579.779 101.818 580.647C102.24 581.414 103.878 581.888 104.639 582.287L107.209 583.62C112.221 586.204 120.57 590.452 121.408 590.866L122.714 591.509C144.072 601.984 166.893 610.866 190.927 611.481L191.115 609.427C192.187 598.076 193.593 586.664 196.662 575.661C196.827 575.07 197.58 575.27 197.648 575.795C199.358 588.82 198.812 601.947 198.215 615.033C197.159 638.209 195.756 661.373 194.509 684.54C193.885 696.129 193.078 707.711 192.35 719.294C191.62 730.9 191.384 742.785 189.718 754.296C189.347 756.861 186.343 758.257 184.068 757.986C181.551 757.687 179.614 755.469 179.603 752.926C179.572 746.221 180.414 739.436 180.883 732.747C181.327 726.392 181.804 720.04 182.293 713.688C184.08 690.507 186.136 667.353 188.038 644.181C188.711 635.963 189.439 627.752 190.189 619.541C164.728 618.72 140.941 609.286 118.249 598.263C117.921 605.723 117.128 613.17 116.36 620.6C114.216 641.332 112.326 662.057 110.911 682.854C110.197 693.358 109.677 703.874 109.224 714.392C109.002 719.562 108.82 724.732 108.681 729.904C108.634 731.628 108.592 733.352 108.555 735.077L108.478 739.027C108.414 741.529 108.16 743.847 106.055 745.669C103.917 747.52 101.029 747.618 98.9131 745.669C96.0804 743.06 96.5812 739.505 96.6652 736C96.735 733.044 96.819 730.089 96.9164 727.134C97.1119 721.223 97.3615 715.314 97.6652 709.408C98.7278 688.761 100.851 668.195 103.626 647.712L104.709 639.805C106.731 625.107 108.952 610.073 113.474 595.914C111.713 595.038 109.958 594.156 108.209 593.27C105.107 591.699 101.9 590.224 98.8843 588.49C96.4922 587.114 94.4291 585.227 93.7632 582.443C93.0205 579.34 94.1562 575.946 94.9106 572.92L94.9762 572.654C95.7159 569.606 96.5125 566.572 97.3531 563.55C100.762 551.298 104.976 539.285 109.909 527.565C119.785 504.101 132.532 481.81 148.103 461.655C162.12 443.513 178.678 427.06 198.084 414.721C207.571 408.688 217.682 403.734 228.374 400.232C233.372 398.596 238.809 397.172 244.042 396.586C246.865 396.27 249.691 396.089 252.527 395.966ZM303.295 358.785C306.7 355.127 313.466 358.913 311.831 363.756C307.985 375.152 301.861 385.546 292.304 393.034C283.32 400.074 272.607 404.645 261.071 403.669C260.982 403.661 260.904 403.639 260.836 403.607L261.83 404.956C269.636 415.518 277.87 425.935 287.795 434.568C308.017 452.159 335.549 461.646 362.135 454.897C383.052 449.588 401.48 433.041 406.9 411.953C406.123 412.301 405.2 412.42 404.186 412.2C399.85 411.258 395.557 406.696 392.76 403.425C389.735 399.886 387.372 396.065 385.64 391.745C382.471 383.84 381.454 373.662 385.782 366.004C386.316 365.06 387.548 365.59 387.653 366.511L387.817 367.949C388.652 375.126 389.691 382.068 393.073 388.61C394.729 391.812 396.713 394.936 399.128 397.617C400.42 399.052 401.822 400.422 403.334 401.625C404.808 402.797 406.592 403.644 407.914 404.989L408.156 405.247L408.162 405.201C408.496 402.359 410.488 401.108 412.437 401.186C414.323 401.262 416.538 402.092 417.396 402.49L417.477 402.528C430.633 408.846 442.75 417.081 454.152 426.217C477.733 445.111 495.401 469.811 503.962 498.898C508.163 513.173 510.574 527.882 513.119 542.523L514.686 551.493C517.062 565.01 519.715 578.792 525.077 591.365C526.464 594.617 525.395 597.667 521.994 598.946C517.747 600.544 513.485 602.09 509.215 603.617C511.312 612.614 512.59 621.923 514.161 630.964C517.499 650.182 521.59 669.277 525.098 688.47C526.891 698.284 528.509 708.13 530.3 717.944C531.163 722.671 532.063 727.39 532.939 732.114C533.41 734.662 533.838 737.217 534.288 739.768L534.366 740.191C534.624 741.537 534.948 742.929 534.578 744.276C534.156 745.812 532.958 746.897 531.888 747.998C531.007 748.905 529.735 748.91 528.656 748.415L528.301 748.251C526.374 747.35 524.865 746.45 524.181 744.276C523.748 742.899 523.592 741.348 523.309 739.929C522.767 737.21 522.253 734.487 521.767 731.757C520.796 726.294 519.847 720.827 518.921 715.355L518.056 710.232C515.086 692.575 512.267 674.81 510.841 656.967C510.209 649.051 509.539 641.141 508.862 633.231L508.355 627.297C507.712 619.787 506.927 612.087 506.816 604.476L504.264 605.382L491.807 609.788C488.718 610.879 484.786 613.117 481.462 612.71C479.835 612.51 478.595 611.998 477.637 611.067C478.784 627.261 480.336 643.427 482.406 659.51C484.289 674.145 486.376 688.759 488.841 703.308C490.062 710.512 491.317 717.709 492.68 724.887C493.361 728.476 494.064 732.061 494.788 735.642C495.149 737.429 495.579 739.217 495.861 741.018C496.183 743.081 495.615 744.35 494.463 746.047C493.517 747.441 491.625 748.157 490.091 747.195C488.059 745.919 487 744.815 486.402 742.492C485.859 740.382 485.529 738.18 485.108 736.043C484.333 732.099 483.583 728.151 482.859 724.196C481.345 715.927 479.949 707.638 478.703 699.324C474.312 670.034 471.525 640.499 470.118 610.916C469.423 596.32 469.209 581.712 469.332 567.101C469.395 559.612 469.64 552.101 470.169 544.631C470.706 537.069 471.821 529.658 472.817 522.169C472.852 521.905 473.224 521.89 473.24 522.169C473.711 530.566 474.45 538.953 474.813 547.371C475.158 555.404 475.31 563.45 475.585 571.485C475.946 582.048 476.447 592.618 477.11 603.179C478.311 601.866 480.12 601.108 481.931 601.404C484.554 600.854 487.378 599.477 489.878 598.641L499.306 595.49C504.262 593.834 509.218 592.19 514.192 590.595C509.745 575.629 506.699 560.441 504.098 545.031L502.938 538.101C500.642 524.459 498.166 510.811 494.007 497.601C489.635 483.713 483.091 470.801 474.411 459.108C465.855 447.584 455.446 437.437 444.728 427.946C435.552 419.821 425.737 412.485 416.378 404.583C416.476 405.107 416.497 405.684 416.41 406.317C414.42 420.886 406.823 434.454 396.236 444.545C374.965 464.818 343.48 469.024 316.256 459.518C289.922 450.322 266.639 428.543 258.413 401.594C258.272 401.133 258.89 400.949 259.138 401.288C259.594 401.914 260.053 402.539 260.512 403.165C260.481 402.916 260.61 402.646 260.916 402.527C270.514 398.82 279.939 393.562 287.133 386.124C290.64 382.499 293.7 378.391 296.116 373.961C297.273 371.839 298.312 369.642 299.142 367.371L299.352 366.784C300.357 363.939 301.197 361.039 303.295 358.785Z" fill="black"/>
<path fill-rule="evenodd" clip-rule="evenodd" d="M345.939 143.865C377.928 143.865 419.22 163.939 422.741 184.499C426.891 208.728 449.111 301.698 444.093 331.512C439.076 361.326 412.037 382.789 368.77 382.789C325.503 382.789 293.209 359.184 285.794 351.08C278.38 342.975 264.638 314.039 264.638 314.039C264.638 314.039 241.472 310.957 241.362 292.066C241.252 273.175 256.424 266.301 256.424 266.301C256.424 266.301 251.015 191.749 264.638 172.339C278.262 152.929 313.95 143.865 345.939 143.865Z" fill="white"/>
<path fill-rule="evenodd" clip-rule="evenodd" d="M420.783 181.181C420.76 180.748 421.391 180.697 421.51 181.08C428.411 203.889 432.665 221.665 437.143 245.049L438.466 251.928C442 270.275 445.571 288.649 448.586 307.085L448.763 308.185C450.274 317.728 451.144 327.364 449.251 336.927C447.482 345.866 442.648 354.061 436.372 360.587C424.242 373.201 407.386 381.08 390.428 384.602C381.854 386.383 373.009 387.071 364.271 386.451C359.915 386.146 355.566 385.532 351.302 384.625L350.831 384.524C346.532 383.596 342.717 382.488 340.433 378.441C339.859 377.422 340.09 375.675 341.296 375.151C343.572 374.169 345.245 373.759 347.729 374.04C350.101 374.31 352.417 375.027 354.761 375.472C359.24 376.323 363.792 376.751 368.35 376.853C377.302 377.05 386.276 375.928 394.834 373.257C409.538 368.664 424.479 359.877 433.071 346.734C443.177 331.273 439.153 312.508 436.475 295.433L436.394 294.916C433.683 277.464 431.002 260.011 428.4 242.547L427.29 235.062C424.372 215.285 421.617 201.167 420.783 181.181ZM271.493 132.774C278.832 127.935 287.951 126.746 296.571 126.813L297.65 126.826C308.688 126.995 364.247 128.317 382.848 128.724L387.273 128.818C393.13 128.928 404.943 129.043 411.029 129.155L411.38 129.161C414.366 129.218 417.352 129.24 420.338 129.336L420.776 129.352C423.013 129.447 424.874 129.782 426.625 131.359C427.516 132.159 427.864 133.378 427.782 134.539L427.769 134.69L432.203 135.079C435.214 135.345 436.805 138.047 435.609 140.78L435.549 140.912C433.425 145.444 431.803 158.632 430.665 163.507C430.068 166.072 429.588 168.675 429.307 171.296C429.082 173.359 429.059 175.427 427.91 177.242C425.459 181.114 418.564 181.08 418.44 175.596C418.434 175.422 418.44 175.253 418.456 175.089C401.104 174.328 377.414 174.402 360.085 175.439C343.899 176.408 327.786 178.606 311.927 181.971C307.91 182.822 303.904 183.752 299.927 184.761C296.665 185.583 292.659 186.074 289.741 187.838C286.473 189.822 286.535 193.378 286.89 196.765C287.271 200.355 287.906 198.506 288.807 201.777L288.862 201.984C289.792 205.535 290.941 209.046 292.462 212.383C293.33 214.288 294.727 216.119 294.197 218.312C293.899 219.546 292.924 220.865 292.028 221.727C287.949 225.644 281.054 223.147 278.282 228.513C275.381 234.123 275.309 241.724 275.063 247.932L275.048 248.295C274.868 252.573 274.918 256.862 275.2 261.128C275.454 265.017 276.49 268.867 275.161 272.603C274.191 275.32 271.025 275.574 269.369 273.364C269.179 273.111 269.005 272.851 268.841 272.589L268.682 272.327L268.671 272.333C268.828 272.581 268.975 272.835 269.116 273.094C269.268 273.381 268.89 273.697 268.659 273.449C264.761 269.205 259.065 270.05 254.654 273.02C250.186 276.041 248.423 281.779 248.192 286.925C247.933 292.633 248.44 299.324 250.817 304.599C251.82 306.831 253.25 308.882 255.623 309.733C256.699 310.117 257.724 310.066 258.845 310.156C260.011 310.246 261.414 310.832 262.546 310.754C264.018 310.649 265.339 312.329 264.921 313.737L264.89 313.831C264.868 313.898 264.845 313.966 264.823 314.028C264.879 314.079 264.935 314.141 264.975 314.231C269.256 322.984 275.127 330.773 281.617 337.998C284.868 341.611 288.473 344.93 292.242 348.002C294.102 349.518 296.062 351.035 298.13 352.257C298.817 352.657 299.447 352.928 300.22 353.148C300.58 353.249 300.992 353.3 301.341 353.418L301.704 353.542C301.729 353.55 301.752 353.558 301.775 353.565C302.811 353.683 303.685 354.371 304.028 355.447C304.924 358.254 303.296 360.734 300.513 361.506C297.498 362.349 294.656 360.868 292.266 359.168L292.107 359.054C287.234 355.543 282.744 351.603 278.856 347.004C271.166 337.925 266.349 327.414 264.119 315.786C263.566 316.976 262.823 318.013 261.533 318.734C259.527 319.861 257.133 319.861 254.935 319.484C250.513 318.734 246.744 316.034 244.225 312.382C241.611 308.595 240.637 303.996 240.045 299.515C239.459 295.028 239.172 290.526 239.758 286.028C240.598 279.569 243.307 273.184 248.575 269.644C244.631 261.05 243.938 251.412 244.22 242C244.563 230.412 246.563 218.695 248.102 207.214L252.474 174.576L252.653 173.26C253.708 165.582 254.992 157.864 257.865 150.629C260.699 143.499 265.003 137.052 271.493 132.774ZM253.093 287.178C260.316 283.672 268.119 286.902 272.006 293.704C275.386 299.619 265.336 303.528 263.66 297.432L263.612 297.244C262.507 292.628 258.011 288.638 253.319 288.018C252.93 287.962 252.642 287.398 253.093 287.178Z" fill="black"/>
<path fill-rule="evenodd" clip-rule="evenodd" d="M381.739 342.064C377.952 340.519 374.572 337.941 372.102 334.647C371.243 333.502 371.02 332.293 371.201 331.187C371.403 329.944 372.139 328.817 373.141 328.061C374.147 327.303 375.406 326.929 376.622 327.12C377.679 327.285 378.731 327.864 379.564 329.065L379.738 329.305C381.207 331.293 383.121 332.924 385.302 333.975C387.403 334.988 389.754 335.461 392.187 335.186C396.82 334.663 400.013 332.156 403.408 328.752C403.828 328.322 404.249 327.879 404.672 327.429C404.94 327.021 405.31 326.758 405.722 326.62C406.179 326.468 406.696 326.476 407.17 326.642C407.626 326.801 408.035 327.103 408.308 327.505C408.569 327.888 408.716 328.36 408.668 328.903C408.358 332.431 406.514 335.579 403.895 338.051C400.987 340.796 397.131 342.696 393.502 343.362C389.503 344.096 385.428 343.57 381.739 342.064ZM395.388 287.643C399.643 290.23 406.125 296.263 401.548 302.676C396.161 308.331 388.405 301.847 384.583 298.915C381.038 296.642 377.057 302.487 380.345 305.141C407.964 325.597 419.172 288.32 397.54 284.602C395.158 284.192 394.274 286.843 395.388 287.643ZM345.895 263.848C346.365 258.011 355.251 256.685 356.135 262.461C356.926 267.635 355.994 272.388 353.665 277.046C351.439 281.496 345.844 279.42 345.421 275.368C344.854 269.936 345.602 267.478 345.895 263.848ZM413.536 261.264C414.775 259.64 416.564 258.532 418.707 259.159C425.403 261.116 423.429 270.626 421.078 275.254C419.8 277.768 415.67 278.406 413.803 276.192C410.761 272.583 409.304 265.375 413.172 261.82C413.277 261.636 413.393 261.451 413.536 261.264ZM353.571 238.308L354.628 238.122C357.9 237.556 361.969 237.012 364.283 239.644C365.511 241.039 365.933 243.633 364.283 244.969C361.381 247.319 358.172 246.408 354.693 246.607C351.827 246.772 349.072 247.246 346.311 248.036C340.253 249.768 335.318 252.93 330.144 256.401C329.465 256.857 328.772 255.988 329.096 255.353C332.083 249.501 337.87 244.694 343.667 241.764C346.762 240.2 350.147 238.903 353.571 238.308ZM407.433 235.686L408.242 235.852C417.052 237.694 428.498 241.374 432.669 250.031C432.828 251.255 432.66 251.517 432.524 251.688L432.478 251.746C432.366 251.892 432.276 252.094 431.746 252.26C431.599 252.225 431.45 252.188 431.3 252.149C429.387 251.647 427.874 250.957 426.41 250.24L424.822 249.457C422.979 248.553 421.12 247.683 419.15 247.04C414.946 245.668 410.622 244.702 406.231 244.186C405.279 244.074 404.363 243.752 403.64 243.202C402.953 242.679 402.429 241.955 402.19 240.993C401.88 239.748 401.969 238.806 402.637 237.682C403.139 236.839 403.857 236.254 404.682 235.918C405.523 235.576 406.481 235.495 407.433 235.686Z" fill="black"/>
</svg>
