<svg xmlns="http://www.w3.org/2000/svg" viewBox="0 0 73.57 73.58"><g id="b4455e1f-12cc-40e2-9bb6-2c4445238afb" data-name="Layer 2"><g id="bae58f50-d337-4a8d-889c-bcf241537b00" data-name="Profile"><g id="a2665002-4b3a-46a2-b042-c0ae9792b5f7" data-name="header-v2"><g id="a27dee61-630d-45d1-a38c-c356dfe71913" data-name="ship-wheel"><path d="M38.76,46.08c-.22,2.26-.48,4.52-.67,6.78-.1,1.8-.22,3.6-.23,5.39-.33,0-.66,0-1,0s-.67,0-1,0c0-1.8-.13-3.59-.22-5.39-.19-2.26-.45-4.52-.68-6.78a9.59,9.59,0,0,0,3.8,0Z" style="fill:#1a1a1a"/><path d="M38.26,73.27a3.31,3.31,0,0,1-4.4-1.6,3.36,3.36,0,0,1,0-2.81,21.85,21.85,0,0,0,2-8.61c.34,0,.69,0,1,0s.7,0,1,0a22.06,22.06,0,0,0,2,8.61A3.31,3.31,0,0,1,38.26,73.27Z" style="fill:#1a1a1a"/><path d="M38.68,27.63a9.29,9.29,0,0,0-3.64,0c.25-2.26.53-4.51.73-6.77.1-1.8.23-3.59.24-5.39l.85,0,.85,0c0,1.8.14,3.59.24,5.39C38.15,23.12,38.43,25.37,38.68,27.63Z" style="fill:#1a1a1a"/><path d="M39.86,4.86a21.2,21.2,0,0,0-2.11,8.61l-.89,0-.89,0a20.81,20.81,0,0,0-2.11-8.61,3.36,3.36,0,0,1,6-3A3.39,3.39,0,0,1,39.86,4.86Z" style="fill:#1a1a1a"/><path d="M21,19.69c-.44.41-.86.83-1.27,1.27a20.74,20.74,0,0,0-7.58-4.6,3.36,3.36,0,1,1,4.25-4.25A20.74,20.74,0,0,0,21,19.69Z" style="fill:#1a1a1a"/><path d="M31.61,29.05a9.45,9.45,0,0,0-2.56,2.56c-1.42-1.77-2.82-3.56-4.27-5.29-1.2-1.35-2.38-2.7-3.64-4,.38-.42.79-.83,1.21-1.21,1.27,1.26,2.62,2.44,4,3.64C28.05,26.23,29.84,27.63,31.61,29.05Z" style="fill:#1a1a1a"/><path d="M52.7,51.28c-.46.49-.93,1-1.42,1.42-1.28-1.27-2.63-2.46-4-3.66-1.73-1.47-3.52-2.88-5.28-4.32A9.32,9.32,0,0,0,44.72,42c1.44,1.76,2.85,3.55,4.32,5.28C50.24,48.65,51.43,50,52.7,51.28Z" style="fill:#1a1a1a"/><path d="M63.59,61.61a3.31,3.31,0,0,1-6.22,0,22,22,0,0,0-4.71-7.48q.77-.71,1.47-1.47a22,22,0,0,0,7.48,4.71A3.3,3.3,0,0,1,63.59,61.61Z" style="fill:#1a1a1a"/><path d="M13.45,36.86c0,.3,0,.6,0,.89a21.13,21.13,0,0,0-8.61,2.11,3.36,3.36,0,0,1-3-6,3.39,3.39,0,0,1,3,0A20.74,20.74,0,0,0,13.47,36C13.46,36.26,13.45,36.56,13.45,36.86Z" style="fill:#1a1a1a"/><path d="M27.45,36.86a9.13,9.13,0,0,0,.18,1.82c-2.26-.25-4.51-.53-6.77-.73-1.8-.1-3.59-.23-5.39-.24,0-.28,0-.57,0-.85s0-.57,0-.85c1.79,0,3.59-.14,5.39-.24,2.26-.2,4.51-.48,6.77-.73A9.13,9.13,0,0,0,27.45,36.86Z" style="fill:#1a1a1a"/><path d="M58.28,36.86c0,.34,0,.67,0,1-1.8,0-3.6.13-5.39.23-2.26.19-4.52.45-6.78.67a9.59,9.59,0,0,0,0-3.8c2.26.23,4.52.49,6.78.68,1.8.09,3.59.21,5.39.22C58.27,36.19,58.28,36.52,58.28,36.86Z" style="fill:#1a1a1a"/><path d="M71.67,39.86a3.33,3.33,0,0,1-2.81,0,22.06,22.06,0,0,0-8.61-2c0-.34,0-.69,0-1s0-.7,0-1a21.89,21.89,0,0,0,8.61-2,3.31,3.31,0,0,1,2.81,6Z" style="fill:#1a1a1a"/><path d="M19.7,52.77c.4.44.83.86,1.26,1.27a20.7,20.7,0,0,0-4.6,7.57,3.36,3.36,0,1,1-4.25-4.24A20.92,20.92,0,0,0,19.7,52.77Z" style="fill:#1a1a1a"/><path d="M31.62,44.67c-1.77,1.42-3.57,2.82-5.3,4.28-1.35,1.19-2.7,2.38-4,3.64-.42-.38-.83-.79-1.21-1.21,1.26-1.28,2.44-2.63,3.64-4,1.45-1.73,2.85-3.52,4.27-5.29A9.49,9.49,0,0,0,31.62,44.67Z" style="fill:#1a1a1a"/><path d="M52.69,22.45c-1.26,1.28-2.45,2.62-3.65,4-1.47,1.73-2.88,3.51-4.32,5.27A9.32,9.32,0,0,0,42,29c1.76-1.44,3.55-2.85,5.28-4.32,1.34-1.2,2.69-2.39,4-3.65C51.76,21.48,52.24,22,52.69,22.45Z" style="fill:#1a1a1a"/><path d="M63.59,14.37a3.33,3.33,0,0,1-2,2,22.15,22.15,0,0,0-7.48,4.7c-.47-.51-1-1-1.47-1.46a22,22,0,0,0,4.71-7.49,3.31,3.31,0,1,1,6.22,2.26Z" style="fill:#1a1a1a"/><path d="M36.86,32.52a4.34,4.34,0,1,1-4.34,4.34,4.35,4.35,0,0,1,4.34-4.34m0-4a8.34,8.34,0,1,0,8.34,8.34,8.33,8.33,0,0,0-8.34-8.34Z" style="fill:#1a1a1a"/><circle cx="36.86" cy="36.86" r="20.42" style="fill:none;stroke:#1a1a1a;stroke-miterlimit:10;stroke-width:3px"/></g></g></g></g></svg>