<svg xmlns="http://www.w3.org/2000/svg" xmlns:xlink="http://www.w3.org/1999/xlink" viewBox="0 0 38 43.86"><defs><linearGradient id="linear-gradient" x1="19" y1="42.86" x2="19" y2="9" gradientUnits="userSpaceOnUse"><stop offset="0" stop-color="#545454"/><stop offset="1" stop-color="#a7a7a7"/></linearGradient><linearGradient id="linear-gradient-2" x1="19" y1="43.86" x2="19" y2="8" gradientUnits="userSpaceOnUse"><stop offset="0" stop-color="#fff"/><stop offset="1" stop-color="#fff" stop-opacity="0"/></linearGradient><linearGradient id="linear-gradient-3" y1="21" x2="19" y2="1" xlink:href="#linear-gradient"/><linearGradient id="linear-gradient-4" x1="16" y1="11" x2="22" y2="11" xlink:href="#linear-gradient-2"/></defs><g id="Layer_2" data-name="Layer 2"><g id="Reminders"><g id="schedule"><path d="M19,42.86A18,18,0,0,1,10,9.27a2,2,0,0,1,2,3.46,14,14,0,1,0,14,0,2,2,0,0,1,2-3.46,18,18,0,0,1-9,33.59Z" fill="url(#linear-gradient)"/><path d="M11,9a2,2,0,0,1,1,3.73,14,14,0,1,0,14,0,2,2,0,1,1,2-3.46,18,18,0,1,1-18,0A2,2,0,0,1,11,9m0-1a3,3,0,0,0-1.5.4,19,19,0,1,0,19,0,3,3,0,1,0-3,5.2,13,13,0,1,1-13,0A3,3,0,0,0,11,8Z" fill="url(#linear-gradient-2)"/><path d="M19,21a2,2,0,0,1-2-2V3a2,2,0,0,1,4,0V19A2,2,0,0,1,19,21Z" fill="url(#linear-gradient-3)"/><path d="M19,1a2,2,0,0,1,2,2V19a2,2,0,0,1-4,0V3a2,2,0,0,1,2-2m0-1a3,3,0,0,0-3,3V19a3,3,0,0,0,6,0V3a3,3,0,0,0-3-3Z" fill="url(#linear-gradient-4)"/></g></g></g></svg>